<svg width="34" height="43" viewBox="0 0 34 43" fill="none" xmlns="http://www.w3.org/2000/svg">
<path d="M28.5623 15.4637C24.9962 12.6712 19.7174 12.1469 12.8585 13.8982C13.9085 11.1498 15.8175 4.90415 12.8612 1.94815C9.48441 -1.42907 6.03458 0.498004 5.18736 1.06262C4.57549 1.11521 2.92551 1.39173 1.81637 2.84418C0.658171 4.36012 0.478441 6.62221 1.28153 9.56738C1.36495 9.87327 1.64205 10.0795 1.95098 10.0795C1.98183 10.0795 2.01275 10.0774 2.04393 10.0734C2.38887 10.0273 2.64628 9.73292 2.64628 9.38494C2.64628 9.36255 2.67959 7.17002 5.56019 6.59325C5.58817 6.58768 5.61589 6.58054 5.64329 6.57135C6.33277 6.34413 8.49445 5.87409 9.36062 6.67857C9.83813 7.12219 9.92295 7.97548 9.61262 9.2167C8.83767 12.3165 8.31505 12.8795 7.76159 13.4757C7.30508 13.9681 6.78755 14.5257 6.16862 16.0729C5.4415 17.8907 5.66503 19.8787 6.78107 21.5276C7.80153 23.0348 9.41074 23.9708 10.9803 23.9708C11.5026 23.9715 12.0693 24.0597 12.3284 24.1628C12.3594 25.9272 12.8042 26.9861 13.6724 27.3244V31.5973L10.1067 32.3192C9.97241 32.3463 9.87069 32.4121 9.77365 32.5091L9.08992 33.2036C8.81864 33.4749 8.82405 33.9145 9.09533 34.1858C9.23101 34.3215 9.4114 34.3892 9.58916 34.3892C9.76684 34.3892 9.94591 34.3214 10.0816 34.1858L10.5849 33.6398L13.6724 33.0137V40.6139H13.0647C12.6811 40.6139 12.3701 40.9246 12.3701 41.3085C12.3701 41.6924 12.6811 42.003 13.0647 42.003H14.4538C14.8374 42.003 15.0615 41.7188 15.0615 41.3349V32.736L20.7978 31.5974C21 31.5568 21.1956 31.4285 21.294 31.2474C21.3923 31.0656 21.4154 30.8499 21.3391 30.6587L20.2578 27.942C21.1444 27.5138 21.267 26.4828 21.33 25.9222C21.3503 25.7425 21.3805 25.4847 21.4226 25.3599C22.5295 25.3748 26.6647 26.3369 28.176 26.7148C28.2313 26.7291 28.2886 26.7226 28.3452 26.7226H32.5126C32.8854 26.7226 33.1916 26.4415 33.2065 26.069C33.2177 25.7923 33.4215 19.2668 28.5623 15.4637ZM4.64309 5.36689C3.60121 5.70658 2.69714 6.30008 2.15918 6.95255C2.04524 5.56475 2.25959 4.47545 2.84562 3.69952C3.37915 2.99356 4.12219 2.68397 4.64309 2.54747V5.36689ZM15.0616 31.3194V27.2828C15.7562 26.9768 15.9374 26.2972 16.1153 25.8062C16.4155 24.978 16.6074 24.6653 17.2104 24.6653C17.4774 24.6653 17.5686 24.6653 17.5686 25.7072C17.5686 26.4132 17.5751 27.8012 18.8192 28.0856L19.7039 30.3989L15.0616 31.3194ZM28.4303 25.3335C27.5604 25.1598 22.7791 23.9575 21.3994 23.9575C20.1541 23.9575 20.0178 25.1646 19.9523 25.7472C19.8514 26.6465 19.7637 26.7226 19.3301 26.7226C19.3297 26.7226 19.3294 26.7226 19.329 26.7226C19.3245 26.7226 19.3205 26.7226 19.3158 26.7226C19.0489 26.7226 18.9685 26.7358 18.9685 25.694C18.9685 24.9051 18.9685 23.2696 17.2321 23.2696C15.5978 23.2696 15.1314 24.5602 14.8527 25.3294C14.6499 25.8891 14.5603 26.0528 14.4539 26.0528C13.9994 26.0528 13.7593 25.3333 13.7593 23.9699C13.7593 22.7612 12.0185 22.5813 10.9811 22.5813C9.86561 22.5813 8.69691 21.8788 7.93147 20.7487C7.07786 19.4878 6.90518 17.9713 7.45873 16.5881C7.98135 15.281 8.36936 14.8634 8.78 14.4205C9.45832 13.69 10.0986 12.9995 10.9604 9.55311C11.403 7.78279 11.1388 6.47234 10.2601 5.65834C9.11174 4.59407 7.24782 4.77388 6.03228 5.01194V2.1082C6.9005 1.60895 9.33585 0.430082 11.8357 2.93031C14.4 5.49494 12.1247 12.2601 11.0231 14.6504C10.9095 14.8974 10.9611 15.1883 11.1385 15.3946C11.3158 15.6 11.6045 15.6863 11.8639 15.6082C18.9351 13.5551 24.2636 13.8579 27.6941 16.5372C31.147 19.2327 31.7164 23.7708 31.8045 25.3335H28.4303V25.3335Z" fill="#03B0CD"/>
</svg>
