<svg width="42" height="36" viewBox="0 0 42 36" fill="none" xmlns="http://www.w3.org/2000/svg">
<path d="M7.22119 3.88843C6.85828 3.88843 6.56494 3.59508 6.56494 3.23218C6.56494 2.86993 6.27094 2.57593 5.90869 2.57593C5.54644 2.57593 5.25244 2.86993 5.25244 3.23218C5.25244 3.59508 4.9591 3.88843 4.59619 3.88843C4.23329 3.88843 3.93994 3.59508 3.93994 3.23218C3.93994 2.14674 4.82325 1.26343 5.90869 1.26343C6.99413 1.26343 7.87744 2.14674 7.87744 3.23218C7.87744 3.59508 7.5841 3.88843 7.22119 3.88843Z" fill="white"/>
<path d="M5.90869 11.1085C4.82325 11.1085 3.93994 10.2251 3.93994 9.13971C3.93994 8.7768 4.23329 8.48346 4.59619 8.48346C4.9591 8.48346 5.25244 8.7768 5.25244 9.13971C5.25244 9.50196 5.54644 9.79596 5.90869 9.79596C6.27094 9.79596 6.56494 9.50196 6.56494 9.13971C6.56494 8.7768 6.85828 8.48346 7.22119 8.48346C7.5841 8.48346 7.87744 8.7768 7.87744 9.13971C7.87744 10.2251 6.99413 11.1085 5.90869 11.1085Z" fill="white"/>
<path d="M4.59619 9.79599C4.23328 9.79599 3.93994 9.50265 3.93994 9.13974V3.23218C3.93994 2.86927 4.23328 2.57593 4.59619 2.57593C4.9591 2.57593 5.25244 2.86927 5.25244 3.23218V9.13974C5.25244 9.50265 4.9591 9.79599 4.59619 9.79599Z" fill="white"/>
<path d="M7.22119 9.79599C6.85829 9.79599 6.56494 9.50265 6.56494 9.13974V3.23218C6.56494 2.86927 6.85829 2.57593 7.22119 2.57593C7.5841 2.57593 7.87744 2.86927 7.87744 3.23218V9.13974C7.87744 9.50265 7.5841 9.79599 7.22119 9.79599Z" fill="white"/>
<path d="M5.90869 2.57593C5.54579 2.57593 5.25244 2.28258 5.25244 1.91968V1.26343C5.25244 0.900521 5.54579 0.607178 5.90869 0.607178C6.2716 0.607178 6.56494 0.900521 6.56494 1.26343V1.91968C6.56494 2.28258 6.2716 2.57593 5.90869 2.57593Z" fill="white"/>
<path d="M5.90869 30.8038C5.54579 30.8038 5.25244 30.5105 5.25244 30.1476V10.4522C5.25244 10.0893 5.54579 9.79596 5.90869 9.79596C6.2716 9.79596 6.56494 10.0893 6.56494 10.4522V30.1476C6.56494 30.5105 6.2716 30.8038 5.90869 30.8038Z" fill="white"/>
<path d="M15.75 6.51605C15.3871 6.51605 15.0938 6.22271 15.0938 5.8598C15.0938 5.49755 14.7998 5.20355 14.4375 5.20355C14.0753 5.20355 13.7812 5.49755 13.7812 5.8598C13.7812 6.22271 13.4879 6.51605 13.125 6.51605C12.7621 6.51605 12.4688 6.22271 12.4688 5.8598C12.4688 4.77436 13.3521 3.89105 14.4375 3.89105C15.5229 3.89105 16.4062 4.77436 16.4062 5.8598C16.4062 6.22271 16.1129 6.51605 15.75 6.51605Z" fill="white"/>
<path d="M14.4375 13.7361C13.3521 13.7361 12.4688 12.8528 12.4688 11.7673C12.4688 11.4044 12.7621 11.1111 13.125 11.1111C13.4879 11.1111 13.7812 11.4044 13.7812 11.7673C13.7812 12.1296 14.0753 12.4236 14.4375 12.4236C14.7998 12.4236 15.0938 12.1296 15.0938 11.7673C15.0938 11.4044 15.3871 11.1111 15.75 11.1111C16.1129 11.1111 16.4062 11.4044 16.4062 11.7673C16.4062 12.8528 15.5229 13.7361 14.4375 13.7361Z" fill="white"/>
<path d="M13.125 12.4236C12.7621 12.4236 12.4688 12.1303 12.4688 11.7674V5.8598C12.4688 5.4969 12.7621 5.20355 13.125 5.20355C13.4879 5.20355 13.7812 5.4969 13.7812 5.8598V11.7674C13.7812 12.1303 13.4879 12.4236 13.125 12.4236Z" fill="white"/>
<path d="M15.75 12.4236C15.3871 12.4236 15.0938 12.1303 15.0938 11.7674V5.8598C15.0938 5.4969 15.3871 5.20355 15.75 5.20355C16.1129 5.20355 16.4062 5.4969 16.4062 5.8598V11.7674C16.4062 12.1303 16.1129 12.4236 15.75 12.4236Z" fill="white"/>
<path d="M14.4375 5.20355C14.0746 5.20355 13.7812 4.91021 13.7812 4.5473V3.89105C13.7812 3.52815 14.0746 3.2348 14.4375 3.2348C14.8004 3.2348 15.0938 3.52815 15.0938 3.89105V4.5473C15.0938 4.91021 14.8004 5.20355 14.4375 5.20355Z" fill="white"/>
<path d="M14.4375 30.8038C14.0746 30.8038 13.7812 30.5105 13.7812 30.1476V13.0798C13.7812 12.7169 14.0746 12.4236 14.4375 12.4236C14.8004 12.4236 15.0938 12.7169 15.0938 13.0798V30.1476C15.0938 30.5105 14.8004 30.8038 14.4375 30.8038Z" fill="white"/>
<path d="M8.53446 30.804C8.51477 30.804 8.49443 30.8033 8.47409 30.8013C8.11315 30.7685 7.84737 30.4496 7.88018 30.088L9.84893 8.42781C9.8824 8.06753 10.1961 7.8024 10.5623 7.8339C10.9232 7.86671 11.189 8.18565 11.1562 8.54724L9.18743 30.2074C9.15593 30.5474 8.87046 30.804 8.53446 30.804Z" fill="white"/>
<path d="M4.59516 30.8038C4.25916 30.8038 3.97369 30.5472 3.94219 30.2072L1.97344 8.54706C1.94063 8.18546 2.20641 7.86652 2.56735 7.83371C2.93485 7.80352 3.24722 8.06734 3.28069 8.42762L5.24944 30.0878C5.28226 30.4494 5.01647 30.7683 4.65554 30.8011C4.63519 30.8031 4.61485 30.8038 4.59516 30.8038Z" fill="white"/>
<path d="M41.3438 30.8112H0.65625C0.293344 30.8112 0 30.5178 0 30.1549C0 29.792 0.293344 29.4987 0.65625 29.4987H41.3438C41.7067 29.4987 42 29.792 42 30.1549C42 30.5178 41.7067 30.8112 41.3438 30.8112Z" fill="white"/>
<path d="M15.7506 30.8111C15.7204 30.8111 15.6902 30.8091 15.6594 30.8045C15.3004 30.7553 15.0497 30.4232 15.0996 30.0643L18.3808 6.43006C18.4301 6.07109 18.7595 5.81647 19.1211 5.87028C19.4801 5.9195 19.7307 6.25156 19.6809 6.61053L16.3996 30.2447C16.3543 30.5728 16.0728 30.8111 15.7506 30.8111Z" fill="white"/>
<path d="M14.4368 30.8038C14.1363 30.8038 13.8646 30.5957 13.7963 30.2899L11.1713 18.4755C11.0932 18.1217 11.3164 17.7713 11.6701 17.6925C12.0232 17.619 12.3742 17.8376 12.453 18.1913L15.078 30.0058C15.1561 30.3595 14.933 30.7099 14.5792 30.7887C14.532 30.7985 14.4841 30.8038 14.4368 30.8038Z" fill="white"/>
<path d="M19.0312 33.4309H1.3125C0.949594 33.4309 0.65625 33.1376 0.65625 32.7747C0.65625 32.4118 0.949594 32.1184 1.3125 32.1184H19.0312C19.3942 32.1184 19.6875 32.4118 19.6875 32.7747C19.6875 33.1376 19.3942 33.4309 19.0312 33.4309Z" fill="white"/>
<path d="M40.0312 35.3989H24.2812C23.9183 35.3989 23.625 35.1056 23.625 34.7427C23.625 34.3798 23.9183 34.0864 24.2812 34.0864H40.0312C40.3942 34.0864 40.6875 34.3798 40.6875 34.7427C40.6875 35.1056 40.3942 35.3989 40.0312 35.3989Z" fill="white"/>
<path d="M24.6127 30.8125C23.7064 30.8125 22.9688 30.0749 22.9688 29.1686C22.9688 28.2623 23.7064 27.5247 24.6127 27.5247C24.9756 27.5247 25.2689 27.818 25.2689 28.1809C25.2689 28.5438 24.9756 28.8372 24.6127 28.8372C24.4302 28.8372 24.2813 28.9861 24.2813 29.1686C24.2813 29.351 24.4302 29.5 24.6127 29.5C24.9756 29.5 25.2689 29.7933 25.2689 30.1562C25.2689 30.5191 24.9756 30.8125 24.6127 30.8125Z" fill="white"/>
<path d="M37.0815 30.8125C36.7186 30.8125 36.4253 30.5191 36.4253 30.1562C36.4253 29.7933 36.7186 29.5 37.0815 29.5C37.264 29.5 37.4129 29.351 37.4129 29.1686C37.4129 28.9861 37.264 28.8372 37.0815 28.8372C36.7186 28.8372 36.4253 28.5438 36.4253 28.1809C36.4253 27.818 36.7186 27.5247 37.0815 27.5247C37.9878 27.5247 38.7254 28.2623 38.7254 29.1686C38.7254 30.0749 37.9878 30.8125 37.0815 30.8125Z" fill="white"/>
<path d="M37.0815 28.8372H24.6128C24.2499 28.8372 23.9565 28.5438 23.9565 28.1809C23.9565 27.818 24.2499 27.5247 24.6128 27.5247H37.0815C37.4444 27.5247 37.7378 27.818 37.7378 28.1809C37.7378 28.5438 37.4444 28.8372 37.0815 28.8372Z" fill="white"/>
<path d="M30.8472 28.837C30.4843 28.837 30.1909 28.5437 30.1909 28.1808C30.1909 24.202 33.4282 20.9653 37.4064 20.9653C37.7693 20.9653 38.0626 21.2587 38.0626 21.6216C38.0626 21.9845 37.7693 22.2778 37.4064 22.2778C34.1514 22.2778 31.5034 24.9258 31.5034 28.1808C31.5034 28.5437 31.2101 28.837 30.8472 28.837Z" fill="white"/>
<path d="M30.8472 28.837C30.4843 28.837 30.1909 28.5437 30.1909 28.1808C30.1909 27.8179 30.4843 27.5245 30.8472 27.5245C34.1022 27.5245 36.7501 24.8766 36.7501 21.6216C36.7501 21.2587 37.0435 20.9653 37.4064 20.9653C37.7693 20.9653 38.0626 21.2587 38.0626 21.6216C38.0626 25.5998 34.8254 28.837 30.8472 28.837Z" fill="white"/>
<path d="M30.8424 28.837C30.4795 28.837 30.1862 28.5437 30.1862 28.1808C30.1862 24.9258 27.5382 22.2778 24.2832 22.2778C23.9203 22.2778 23.627 21.9845 23.627 21.6216C23.627 21.2587 23.9203 20.9653 24.2832 20.9653C28.262 20.9653 31.4987 24.2026 31.4987 28.1808C31.4987 28.5437 31.2053 28.837 30.8424 28.837Z" fill="white"/>
<path d="M30.8424 28.837C26.8636 28.837 23.627 25.5998 23.627 21.6216C23.627 21.2587 23.9203 20.9653 24.2832 20.9653C24.6461 20.9653 24.9395 21.2587 24.9395 21.6216C24.9395 24.8766 27.5874 27.5245 30.8424 27.5245C31.2053 27.5245 31.4987 27.8179 31.4987 28.1808C31.4987 28.5437 31.2053 28.837 30.8424 28.837Z" fill="white"/>
<path d="M32.7662 24.1987C32.4033 24.1987 32.11 23.9053 32.11 23.5424C32.11 21.9668 31.4951 20.4843 30.3795 19.3687C30.1229 19.1121 30.1229 18.6973 30.3795 18.4407C30.6361 18.1841 31.0508 18.1841 31.3074 18.4407C32.6711 19.8044 33.4225 21.6163 33.4225 23.5424C33.4225 23.9053 33.1285 24.1987 32.7662 24.1987Z" fill="white"/>
<path d="M28.9209 24.1987C28.558 24.1987 28.2646 23.9053 28.2646 23.5424C28.2646 21.6157 29.0161 19.8044 30.3797 18.4407C30.6363 18.1841 31.0511 18.1841 31.3077 18.4407C31.5643 18.6973 31.5643 19.1121 31.3077 19.3687C30.1921 20.4843 29.5771 21.9668 29.5771 23.5424C29.5771 23.9053 29.2838 24.1987 28.9209 24.1987Z" fill="white"/>
<path d="M26.9074 11.1196C26.7394 11.1196 26.5714 11.0553 26.4434 10.9273L25.1309 9.61483C24.8743 9.35823 24.8743 8.94348 25.1309 8.68689C25.3875 8.4303 25.8023 8.4303 26.0589 8.68689L27.3714 9.99939C27.628 10.256 27.628 10.6707 27.3714 10.9273C27.2434 11.0553 27.0754 11.1196 26.9074 11.1196Z" fill="white"/>
<path d="M26.9074 11.1196C26.7394 11.1196 26.5714 11.0553 26.4434 10.9273C26.1868 10.6707 26.1868 10.256 26.4434 9.99939L28.4122 8.03064C28.6688 7.77405 29.0835 7.77405 29.3401 8.03064C29.5967 8.28723 29.5967 8.70198 29.3401 8.95858L27.3714 10.9273C27.2434 11.0553 27.0754 11.1196 26.9074 11.1196Z" fill="white"/>
<path d="M34.1257 13.0891C33.9577 13.0891 33.7897 13.0248 33.6617 12.8968L33.0054 12.2406C32.7488 11.984 32.7488 11.5692 33.0054 11.3126C33.262 11.056 33.6768 11.056 33.9334 11.3126L34.5896 11.9689C34.8462 12.2255 34.8462 12.6402 34.5896 12.8968C34.4617 13.0248 34.2937 13.0891 34.1257 13.0891Z" fill="white"/>
<path d="M34.1257 13.0891C33.9577 13.0891 33.7897 13.0248 33.6617 12.8968C33.4051 12.6402 33.4051 12.2255 33.6617 11.9689L34.9742 10.6564C35.2308 10.3998 35.6455 10.3998 35.9021 10.6564C36.1587 10.913 36.1587 11.3277 35.9021 11.5843L34.5896 12.8968C34.4616 13.0248 34.2937 13.0891 34.1257 13.0891Z" fill="white"/>
</svg>
