<svg width="144" height="42" viewBox="0 0 144 42" fill="none" xmlns="http://www.w3.org/2000/svg">
<path d="M2.73828 16.5828C1.70382 15.7717 0.481734 16.0517 0 16.2931C0.278899 16.631 1.17138 17.9731 2.51009 20.6379C4.18348 23.969 6.54145 31.7173 6.92176 34.7586C7.22602 37.1917 7.30208 40.4069 7.30208 41.7104C7.83452 41.5655 9.0059 41.0876 9.43185 40.3345C9.85781 39.5814 9.76146 37.8966 9.66004 37.1483C10.2939 37.4621 11.9115 38.0897 13.3111 38.0897C14.7106 38.0897 16.2775 37.3173 16.8861 36.931C16.8353 37.5586 16.7644 39.0455 16.8861 39.9724C17.0078 40.8993 18.4073 41.5173 19.0919 41.7104C19.1426 38.9586 19.7004 32.0793 21.5259 26.5759C23.3514 21.0724 25.5826 17.4276 26.47 16.2931C26.2418 16.1724 25.5725 15.9745 24.7206 16.1483C23.6557 16.3655 22.8951 17.4517 21.9823 19.0448C21.2521 20.3193 19.3454 25.7069 18.4834 28.2414C15.3648 25.1035 8.85377 18.5524 7.75846 17.4517C6.38932 16.0759 6.38932 13.9759 6.61751 12.6724C6.8457 11.369 8.59515 7.74828 13.235 7.74828C17.8749 7.74828 19.5483 11.8759 19.5483 13.7586C19.5483 15.6414 18.9398 16.0035 18.7876 17.3069C18.6659 18.3497 19.244 19.2379 19.5483 19.5517C19.6497 19.6 20.0655 19.291 20.9174 17.669C21.9823 15.6414 22.1344 13.0345 21.5259 11.2241C20.9174 9.4138 19.3201 7.96552 17.7228 6.87931C16.4449 6.01035 14.9591 5.74483 14.376 5.72069L13.7675 5.14138L13.235 0L12.7786 5.14138L12.0941 5.72069C11.2574 5.84138 9.21887 6.34345 7.75846 7.38621C5.93294 8.68966 4.33561 10.9345 4.33561 13.9759C4.33561 16.409 5.70475 18.4655 6.38932 19.1897C9.55862 22.3759 16.095 29.009 16.8861 30.0517C17.6771 31.0945 17.3678 32.7552 17.1142 33.4552C16.7086 34.2276 15.3192 35.7869 13.0068 35.8448C10.6945 35.9028 9.4065 34.2759 9.05153 33.4552L7.83452 28.3862L12.3983 32.5862C12.6265 32.7552 13.235 32.9483 13.8435 32.369C14.452 31.7897 14.0971 31.1621 13.8435 30.9207L6.38932 23.8241C5.60333 21.7483 3.77274 17.3938 2.73828 16.5828Z" fill="#03B0CD"/>
<path d="M36.1692 31.7171C37.6738 30.175 40.5577 26.3624 41.8116 24.6489C42.3042 26.8764 43.4237 31.6143 43.961 32.7452C44.4984 33.8762 45.6179 33.4735 46.1105 33.1308C46.424 32.7452 47.7763 30.8946 50.6781 26.5766C54.3053 21.179 58.8729 10.7693 59.5446 9.48419C60.2164 8.19905 59.4103 7.68499 58.4699 8.07053C57.7176 8.37897 57.0817 9.56986 56.8578 10.1268C54.6636 14.1107 49.9795 22.5926 48.7973 24.6489C47.6151 26.7051 45.9762 28.2473 45.3044 28.7613C45.1701 27.9045 44.8746 25.677 44.7671 23.6207C44.6327 21.0505 45.1701 19.6368 45.3044 19.1227C45.4388 18.6087 46.7822 16.681 45.7075 16.1669C44.8477 15.7557 44.1849 16.3383 43.961 16.681C43.7371 16.938 42.8057 18.1717 40.8712 21.0505C38.453 24.6489 34.0198 30.0464 33.3481 30.8175C32.6763 31.5886 31.0642 33.5163 32.139 34.0304C33.2137 34.5444 34.2884 33.6448 36.1692 31.7171Z" fill="white"/>
<path d="M51.4842 28.2472L54.3053 23.6207C54.4397 23.278 54.9233 22.5926 55.7831 22.5926C56.6429 22.5926 57.0369 23.6207 57.1265 24.1348C55.9174 25.5056 53.6605 28.2472 54.3053 28.2472C55.1114 28.2472 56.1861 27.3477 56.8578 26.5766C57.5295 25.8055 58.4699 23.2352 59.8133 23.2352C60.8881 23.2352 60.8881 24.1776 60.7537 24.6489C59.9925 25.8483 58.658 28.3244 59.4103 28.6328C60.3507 29.0183 61.1567 28.5043 63.0375 26.8336C64.9183 25.1629 65.4557 23.2352 65.4557 22.5926C65.4557 21.9501 65.187 20.0223 66.2617 19.7653C67.1215 19.5597 67.426 20.2794 67.4708 20.6649C67.6499 21.4788 68.3037 23.1324 69.4859 23.2352C70.9637 23.3637 72.1728 23.6207 72.5758 24.9059C72.8982 25.934 71.098 25.934 70.1576 25.8055C69.9337 25.934 69.2978 26.4223 68.5455 27.3477C67.6051 28.5043 66.5304 30.175 66.5304 31.9742C66.5304 33.7734 68.6799 34.4159 69.4859 34.93C70.292 35.444 69.6203 36.6007 68.9486 36.7292C68.2768 36.8577 67.4708 36.2151 65.993 34.93C64.5153 33.6448 64.5153 32.1027 64.5153 30.432C64.5153 29.0954 66.4856 26.4481 67.4708 25.2914L66.7991 24.9059C66.5752 25.3343 65.805 26.4995 64.5153 27.7332C62.9032 29.2754 61.0224 30.3035 59.1416 30.432C57.637 30.5348 56.7235 29.7037 56.4548 29.2754C56.2757 29.361 55.7293 29.6095 54.977 29.9179C54.0366 30.3035 52.4245 30.8175 51.7528 29.9179C51.2155 29.1983 51.3498 28.5043 51.4842 28.2472Z" fill="white"/>
<path d="M81.5767 28.6328H76.8747C76.4269 29.104 75.4238 30.1236 74.9939 30.432C74.4566 30.8175 74.5909 31.9742 77.9494 31.9742C81.308 31.9742 87.7564 30.432 90.9806 28.2472C94.2048 26.0625 88.1594 24.9059 83.8605 23.7493C79.5615 22.5926 77.1434 21.0505 78.3525 18.4802C79.5615 15.9099 84.3978 13.5966 88.8311 12.5685C93.2644 11.5404 96.7572 12.44 96.6229 13.4681C96.491 14.4779 96.359 14.4959 90.1179 15.3485L89.7715 15.3958C83.1888 16.2954 81.5767 18.6087 81.8453 19.7653C82.114 20.9219 90.0402 22.5926 93.5331 24.1348C97.0259 25.677 95.6825 27.9902 92.1896 30.175C88.6968 32.3597 79.6959 34.4159 75.3969 34.4159C71.098 34.4159 71.501 32.7452 71.501 32.2312C71.501 31.8199 72.7549 30.0893 73.3818 29.2754C73.2475 29.2754 72.9788 29.0697 72.9788 28.2472C72.9788 27.4248 73.7849 26.9621 74.1879 26.8336C74.8148 26.7479 76.5792 26.5766 78.6211 26.5766C81.1736 26.5766 82.9201 26.3195 83.0544 27.0906C83.1619 27.7075 82.114 28.3758 81.5767 28.6328Z" fill="white"/>
<path d="M101.325 24.0063L99.8471 22.4641C99.0411 23.021 97.214 24.6232 96.3542 26.5766C95.2795 29.0183 96.2199 30.3035 97.6976 30.5605C98.8798 30.7661 100.519 29.8751 101.191 29.4039C101.414 29.7894 102.265 30.5605 103.877 30.5605C105.489 30.5605 106.609 29.9608 106.967 29.6609C107.191 29.9608 107.934 30.5605 109.117 30.5605C110.299 30.5605 111.49 29.7894 111.938 29.4039C112.341 29.7037 113.389 30.3035 114.356 30.3035C115.323 30.3035 116.729 29.5324 117.312 29.1468C117.312 29.7466 117.849 30.9718 119.998 31.0746C122.148 31.1774 123.491 29.8323 123.894 29.1468C124.073 29.6181 124.781 30.5605 126.178 30.5605C127.575 30.5605 128.462 29.9608 128.731 29.6609C128.82 29.9608 129.187 30.5605 129.94 30.5605C130.88 30.5605 131.417 30.175 132.223 28.6328C132.868 27.3991 134.194 26.3195 134.776 25.934C135 26.8764 135.555 28.9412 135.985 29.6609C136.522 30.5605 138.134 33.2593 141.762 33.3878C144.663 33.4906 144.135 32.7452 143.508 32.3597C142.657 32.0598 140.526 30.9975 138.806 29.1468C136.657 26.8336 136.657 23.2352 135.716 23.1067C134.964 23.0039 133.343 24.2633 132.626 24.9059C132.761 24.4347 133.029 23.3637 133.029 22.8497C133.029 22.2071 131.417 21.436 130.88 23.4922C130.343 25.5485 127.924 28.7613 126.581 28.7613C125.238 28.7613 124.969 26.0625 124.835 24.9059C124.7 23.7493 123.894 24.0063 123.357 24.3918C122.82 24.7774 123.357 25.1629 123.357 26.5766C123.357 27.9902 121.745 28.7613 121.207 28.7613C120.67 28.7613 119.864 28.2472 119.864 27.2191C119.864 26.191 121.342 24.6489 123.088 23.7493C124.835 22.8497 123.894 22.0786 122.148 22.4641C120.401 22.8497 118.924 24.3918 118.252 25.5485C117.58 26.7051 116.505 27.9902 115.028 28.2472C113.55 28.5043 113.416 27.4762 113.819 26.4481C114.141 25.6256 115.923 21.9929 116.774 20.2794C119.998 20.1509 127.065 19.9195 129.537 20.0223C132.626 20.1509 132.626 19.7653 133.029 18.9942C133.352 18.3774 132.447 18.1375 131.955 18.0946L118.252 17.8376C118.879 16.8523 120.374 14.5991 121.342 13.4681C122.551 12.0545 122.013 11.2834 120.401 11.2834C119.112 11.2834 118.162 12.7399 117.849 13.4681C116.416 16.1669 113.281 22.0786 112.207 24.1348C111.132 26.191 111.132 27.5618 111.266 27.9902C110.908 28.2044 110.03 28.6328 109.385 28.6328C108.579 28.6328 108.042 27.8617 108.579 26.3195C109.117 24.7774 111.669 19.7653 113.953 16.5525C116.237 13.3396 117.312 11.6689 115.431 11.2834C113.926 10.975 113.013 12.0116 112.744 12.5685C111.714 14.5391 109.251 19.277 107.639 22.4641C106.027 25.6513 106.072 27.6475 106.296 28.2472C105.489 28.5471 103.877 28.9669 103.877 28.2472C103.877 27.3477 104.683 25.8055 105.489 24.9059C106.296 24.0063 105.489 23.3637 104.28 23.1067C103.313 22.9011 102.892 23.4494 102.803 23.7493C102.803 24.2633 102.48 25.6513 101.191 27.0906C99.5784 28.8898 99.0411 27.9902 99.3097 27.0906C99.5247 26.3709 100.743 24.7345 101.325 24.0063Z" fill="white"/>
<path d="M68.2319 7.95118L64.578 13.6427H63.5269L62.1721 7.95118H63.2724L64.2988 12.3255L67.1234 7.95118H68.2319Z" fill="white"/>
<path d="M68.8466 7.95118H69.9141L68.7645 13.6427H67.6971L68.8466 7.95118Z" fill="white"/>
<path d="M72.1995 13.724C71.7561 13.724 71.3319 13.6616 70.9268 13.537C70.5217 13.4123 70.2042 13.2524 69.9743 13.0572L70.4259 12.2279C70.6668 12.4176 70.9514 12.5694 71.2799 12.6832C71.6138 12.7916 71.9532 12.8458 72.298 12.8458C72.7195 12.8458 73.0535 12.7754 73.2998 12.6344C73.5516 12.4881 73.6775 12.2902 73.6775 12.0409C73.6775 11.9 73.6255 11.7834 73.5215 11.6913C73.423 11.5937 73.297 11.5151 73.1438 11.4555C72.996 11.3959 72.788 11.3281 72.5197 11.2522C72.1475 11.1438 71.8464 11.0408 71.6165 10.9433C71.3866 10.8403 71.1895 10.6885 71.0253 10.488C70.8611 10.2874 70.779 10.0272 70.779 9.70741C70.779 9.33881 70.883 9.0163 71.091 8.73986C71.3045 8.46341 71.6001 8.2493 71.9778 8.09753C72.3555 7.94576 72.7907 7.86987 73.2834 7.86987C73.6556 7.86987 74.0087 7.91324 74.3426 7.99996C74.6765 8.08127 74.9639 8.19781 75.2048 8.34958L74.786 9.18704C74.5725 9.04611 74.3316 8.9377 74.0634 8.86182C73.7952 8.78593 73.516 8.74799 73.2259 8.74799C72.7989 8.74799 72.4595 8.82658 72.2077 8.98378C71.9614 9.13555 71.8382 9.33881 71.8382 9.59358C71.8382 9.73993 71.8902 9.86189 71.9942 9.95946C72.0982 10.057 72.2241 10.1356 72.3719 10.1952C72.5197 10.2495 72.736 10.3199 73.0206 10.4066C73.3819 10.5096 73.6775 10.6099 73.9074 10.7075C74.1373 10.805 74.3316 10.9487 74.4904 11.1384C74.6546 11.3281 74.7367 11.5748 74.7367 11.8783C74.7367 12.2523 74.63 12.5775 74.4165 12.854C74.2085 13.1304 73.9101 13.3445 73.5215 13.4963C73.1383 13.6481 72.6976 13.724 72.1995 13.724Z" fill="white"/>
<path d="M76.6327 7.95118H77.7002L76.5506 13.6427H75.4832L76.6327 7.95118Z" fill="white"/>
<path d="M80.2401 8.84555H78.3352L78.5158 7.95118H83.3932L83.2043 8.84555H81.2994L80.3387 13.6427H79.2712L80.2401 8.84555Z" fill="white"/>
</svg>
